<svg xmlns="http://www.w3.org/2000/svg" width="20" height="20" viewBox="0 0 48 48"><g><path fill="#4285F4" d="M24 9.5c3.54 0 6.7 1.22 9.19 3.23l6.85-6.85C36.68 2.7 30.77 0 24 0 14.82 0 6.71 5.48 2.69 13.44l7.98 6.2C12.13 13.09 17.62 9.5 24 9.5z"/><path fill="#34A853" d="M46.1 24.55c0-1.64-.15-3.22-.42-4.74H24v9.01h12.42c-.54 2.9-2.18 5.36-4.65 7.01l7.19 5.59C43.98 37.13 46.1 31.3 46.1 24.55z"/><path fill="#FBBC05" d="M9.67 28.65c-1.13-3.36-1.13-6.99 0-10.35l-7.98-6.2C-1.06 17.1-1.06 30.9 1.69 37.9l7.98-6.2z"/><path fill="#EA4335" d="M24 46c6.48 0 11.92-2.15 15.89-5.85l-7.19-5.59c-2.01 1.35-4.6 2.14-8.7 2.14-6.38 0-11.87-3.59-14.33-8.94l-7.98 6.2C6.71 42.52 14.82 48 24 48z"/><path fill="none" d="M0 0h48v48H0z"/></g></svg> 